<?xml version="1.0" encoding="UTF-8" standalone="no"?>
<!-- Created with Inkscape (http://www.inkscape.org/) -->

<svg
   xmlns:dc="http://purl.org/dc/elements/1.1/"
   xmlns:cc="http://creativecommons.org/ns#"
   xmlns:rdf="http://www.w3.org/1999/02/22-rdf-syntax-ns#"
   xmlns:svg="http://www.w3.org/2000/svg"
   xmlns="http://www.w3.org/2000/svg"
   xmlns:sodipodi="http://sodipodi.sourceforge.net/DTD/sodipodi-0.dtd"
   xmlns:inkscape="http://www.inkscape.org/namespaces/inkscape"
   id="svg2"
   version="1.1"
   inkscape:version="0.91 r13725"
   xml:space="preserve"
   width="929.0625"
   height="191.47501"
   viewBox="0 0 929.0625 191.47501"
   sodipodi:docname="write-as-logo-light.svg"><metadata
     id="metadata8"><rdf:RDF><cc:Work
         rdf:about=""><dc:format>image/svg+xml</dc:format><dc:type
           rdf:resource="http://purl.org/dc/dcmitype/StillImage" /><dc:title></dc:title></cc:Work></rdf:RDF></metadata><defs
     id="defs6" /><sodipodi:namedview
     pagecolor="#ffffff"
     bordercolor="#666666"
     borderopacity="1"
     objecttolerance="10"
     gridtolerance="10"
     guidetolerance="10"
     inkscape:pageopacity="0"
     inkscape:pageshadow="2"
     inkscape:window-width="1177"
     inkscape:window-height="694"
     id="namedview4"
     showgrid="false"
     inkscape:zoom="0.39502186"
     inkscape:cx="464.53125"
     inkscape:cy="95.737503"
     inkscape:window-x="0"
     inkscape:window-y="24"
     inkscape:window-maximized="0"
     inkscape:current-layer="g10" /><g
     id="g10"
     inkscape:groupmode="layer"
     inkscape:label="ink_ext_XXXXXX"
     transform="matrix(1.25,0,0,-1.25,0,191.475)"><g
       id="g12"
       transform="scale(0.1,0.1)"><path
         d="m 3094.11,1370.45 c 0,-89.1 -72.24,-161.33 -161.34,-161.33 -89.1,0 -161.34,72.23 -161.34,161.33 0,89.11 72.24,161.34 161.34,161.34 89.1,0 161.34,-72.23 161.34,-161.34"
         style="fill:#00b3e3;fill-opacity:1;fill-rule:nonzero;stroke:none"
         id="path14"
         inkscape:connector-curvature="0" /><path
         d="M 5440.52,161.34 C 5440.52,72.2305 5368.29,0 5279.19,0 c -89.11,0 -161.34,72.2305 -161.34,161.34 0,89.101 72.23,161.332 161.34,161.332 89.1,0 161.33,-72.231 161.33,-161.332"
         style="fill:#00b3e3;fill-opacity:1;fill-rule:nonzero;stroke:none"
         id="path16"
         inkscape:connector-curvature="0" /><path
         d="M 925.797,1015.11 1083.3,472.5 c 7.68,-27.531 15.83,-57.301 24.47,-89.309 8.64,-32.019 16.47,-61.472 23.55,-88.359 l 1.92,0 c 3.84,26.887 10.38,55.848 19.67,86.93 9.28,31.058 17.78,59.367 25.46,84.976 l 75.87,248.739 c 5.77,17.925 10.89,34.109 15.37,48.515 4.45,14.406 9.11,27.672 13.91,39.836 4.8,12.164 9.46,23.692 13.94,34.574 4.45,10.883 9.6,21.77 15.37,32.653 l 0,1.922 -113.33,-7.684 0,149.817 373.59,0 0,-125.809 c -26.29,0 -49.34,-8.641 -69.15,-25.93 -19.85,-17.285 -36.99,-37.773 -51.4,-61.461 -14.4,-23.691 -26.25,-47.379 -35.53,-71.07 -9.28,-23.688 -16.19,-41.934 -20.63,-54.738 l -223.77,-650.1723 -208.399,0 -135.41,419.6793 c -3.844,10.25 -8.645,24.832 -14.406,43.723 -5.762,18.848 -11.704,39.367 -17.786,61.457 -6.082,22.09 -12.484,44.961 -19.207,68.649 -6.722,23.691 -12.949,46.097 -18.711,67.226 l -1.918,0 c -3.843,-27.531 -10.101,-58.441 -18.746,-92.656 -8.644,-34.254 -17.605,-67.727 -26.89,-100.379 -9.285,-32.649 -17.926,-62.098 -25.93,-88.348 -8.004,-26.25 -13.906,-44.82 -17.75,-55.711 L 558.938,25.9297 l -194.958,0 -238.171,681.8633 c -9,24.969 -16.008,45.137 -21.129,60.504 -5.1566,15.363 -9.4612,28.668 -12.9808,39.871 -3.5234,11.172 -6.2265,21.27 -8.1484,30.234 -1.918,8.965 -4.1953,19.207 -6.7227,30.735 L 0,865.293 l 0,149.817 471.543,0 0,-125.809 c -27.531,-1.918 -46.918,-10.242 -58.121,-24.969 -11.203,-14.727 -16.789,-33.613 -16.789,-56.66 -0.641,-10.887 0.14,-22.41 2.383,-34.574 2.242,-12.164 5.3,-24.649 9.14,-37.453 l 66.266,-240.094 c 7.683,-28.813 15.187,-59.039 22.551,-90.742 7.363,-31.688 13.304,-63.879 17.785,-96.528 l 1.922,0 c 3.199,14.078 6.367,28.489 9.601,43.207 3.203,14.731 6.727,30.594 10.567,47.563 3.84,16.929 8.289,35.531 13.445,55.699 5.121,20.172 11.168,42.398 18.246,66.73 l 144.055,493.63 213.203,0"
         style="fill:#292929;fill-opacity:1;fill-rule:nonzero;stroke:none"
         id="path18"
         inkscape:connector-curvature="0" /><path
         d="m 2373.08,1046.8 c 23.04,0 44.99,-3.2 65.8,-9.6 20.77,-6.4 39.02,-16.18 54.74,-29.27 15.69,-13.129 28.17,-29.953 37.45,-50.442 9.25,-20.488 13.91,-45.136 13.91,-73.949 0,-15.363 -2.56,-31.191 -7.68,-47.519 -5.12,-16.329 -13.13,-31.231 -24.01,-44.676 -10.89,-13.446 -25.11,-24.469 -42.72,-33.114 -17.64,-8.644 -38.91,-12.984 -63.88,-12.984 -13.45,0 -27.21,1.777 -41.3,5.301 -14.08,3.484 -27.03,9.601 -38.88,18.246 -11.88,8.645 -22.08,20.312 -30.73,35.035 -8.64,14.727 -13.94,33.613 -15.86,56.664 -19.85,0 -39.84,-6.582 -60.01,-19.672 -20.16,-13.125 -39.05,-29.449 -56.66,-48.976 -17.64,-19.567 -33.15,-40.516 -46.59,-62.922 -13.45,-22.41 -23.05,-42.578 -28.81,-60.504 l 0,-320.77 c 0,-9.597 -0.15,-21.117 -0.47,-34.566 -0.35,-13.453 -0.82,-27.852 -1.46,-43.223 -0.64,-15.359 -1.42,-31.187 -2.38,-47.519 -0.96,-16.32 -2.1,-31.871 -3.38,-46.59 l 127.73,5.762 0,-149.8206 -515.72,0 0,127.7306 c 27.53,0 49.12,4.16 64.85,12.488 15.68,8.32 27.35,20.16 35.03,35.531 7.68,15.368 12.49,33.75 14.41,55.239 1.92,21.449 2.88,45.281 2.88,71.531 l 0,331.324 c 0,23.692 0.5,50.082 1.46,79.25 0.96,29.133 3.02,58.403 6.22,87.856 l -138.29,-5.762 0,147.894 c 45.45,0 85.61,1.957 120.54,5.872 34.9,3.875 64.67,8.785 89.32,14.656 24.61,5.829 44.49,12.159 59.54,18.989 15.01,6.87 26.07,13.52 33.11,20.03 l 97,0 8.64,-169.027 2.89,0 c 12.8,17.289 28.34,36.492 46.59,57.621 18.25,21.129 39.38,40.836 63.39,59.082 24.01,18.244 50.4,33.614 79.21,46.094 28.81,12.49 60.18,18.71 94.12,18.71"
         style="fill:#292929;fill-opacity:1;fill-rule:nonzero;stroke:none"
         id="path20"
         inkscape:connector-curvature="0" /><path
         d="m 3053.69,347.648 c 0,-9.597 -0.14,-21.117 -0.46,-34.566 -0.35,-13.453 -0.82,-27.852 -1.46,-43.223 -0.64,-15.359 -1.42,-31.187 -2.38,-47.519 -0.96,-16.32 -2.1,-31.871 -3.38,-46.59 l 127.73,5.762 0,-149.8206 -515.72,0 0,127.7306 c 27.53,0 49.12,4.16 64.84,12.488 15.69,8.32 27.36,20.16 35.04,35.531 7.68,15.368 12.48,33.75 14.4,55.239 1.93,21.449 2.89,45.281 2.89,71.531 l 0,326.523 c 0,23.688 0.49,50.899 1.45,81.633 0.96,30.731 3.03,60.821 6.23,90.274 l -138.29,-5.762 0,147.894 c 45.45,0 85.61,1.957 120.54,5.872 34.89,3.875 64.66,8.785 89.31,14.656 24.62,5.829 44.5,12.159 59.55,18.989 15.01,6.87 26.07,13.52 33.11,20.03 l 106.6,0 0,-686.672"
         style="fill:#292929;fill-opacity:1;fill-rule:nonzero;stroke:none"
         id="path22"
         inkscape:connector-curvature="0" /><path
         d="m 3207.54,1015.11 c 33.93,0.64 65.62,9.14 95.07,25.47 29.45,16.33 55.85,36.63 79.25,60.96 23.37,24.34 43.22,50.91 59.54,79.71 16.33,28.82 28.32,55.71 36,80.68 l 145.02,0 -0.96,-246.82 250.65,0 0,-151.739 -250.65,-4.801 c -0.64,-92.976 -1.11,-170.054 -1.43,-231.308 -0.35,-61.211 -0.64,-110.262 -0.96,-147.114 -0.35,-36.886 -0.49,-63.168 -0.49,-78.886 0,-15.731 0,-24.832 0,-27.391 0,-23.09 1.45,-46.031 4.33,-68.789 2.89,-22.773 8.65,-43.262 17.29,-61.543 8.64,-18.277 20.77,-33.008 36.5,-44.25 15.68,-11.199 35.99,-16.82 60.96,-16.82 8.32,0 18.75,1.32 31.23,3.883 12.49,2.589 26.54,7.886 42.26,15.968 15.68,8.071 32.47,20.02 50.4,35.821 17.93,15.82 36.17,36.949 54.74,63.418 l 95.08,-88.36 C 3975.51,160.699 3939.66,120.051 3903.81,91.2305 3867.95,62.4219 3833.7,41.3008 3801.05,27.8516 3768.39,14.4102 3738.62,6.39844 3711.73,3.83984 3684.84,1.32031 3662.43,0 3644.51,0 c -21.77,0 -44.32,1.78125 -67.69,5.30078 -23.41,3.51953 -46.46,10.07032 -69.15,19.66802 -22.73,9.6015 -44.18,23.1914 -64.34,40.832 -20.17,17.6094 -38.1,40.4802 -53.79,68.6482 -15.72,28.172 -28.02,62.281 -36.99,102.301 -8.96,39.98 -13.44,87.211 -13.44,141.641 l 2.88,474.418 -134.45,-1.922 0,164.223"
         style="fill:#292929;fill-opacity:1;fill-rule:nonzero;stroke:none"
         id="path24"
         inkscape:connector-curvature="0" /><path
         d="m 4559.81,908.512 c -28.81,0 -54.6,-5.446 -77.29,-16.328 -22.77,-10.883 -42.44,-25.93 -59.08,-45.137 -16.65,-19.207 -30.27,-42.399 -40.8,-69.609 -10.6,-27.247 -18.11,-57.161 -22.59,-89.813 l 362.06,0 c -1.28,40.336 -6.08,74.59 -14.4,102.758 -8.33,28.172 -19.67,51.043 -34.11,68.683 -14.37,17.61 -31.2,30.235 -50.41,37.918 -19.2,7.684 -40.33,11.528 -63.38,11.528 z M 4993.9,560.855 4347.57,549.332 c 0,-53.781 4.94,-103.582 14.87,-149.32 9.92,-45.782 25.78,-85.153 47.55,-118.121 21.77,-33.012 50.26,-58.942 85.47,-77.789 35.22,-18.891 78.43,-28.352 129.65,-28.352 19.85,0 41.94,2.559 66.27,7.68 24.33,5.121 49.12,13.449 74.41,24.968 25.29,11.524 50.76,26.75 76.37,45.641 25.61,18.852 49.62,42.07 72.03,69.602 l 88.35,-83.551 C 4967.33,189.512 4929.87,148.539 4890.18,117.16 4850.48,85.7891 4810.61,61.4609 4770.63,44.1797 4730.58,26.8906 4691.2,15.2188 4652.47,9.14063 4613.73,3.05859 4577.74,0 4544.44,0 c -72.34,0 -138.29,12.1602 -197.83,36.4883 -59.55,24.332 -110.77,59.2305 -153.66,104.6837 -42.9,45.457 -76.05,100.199 -99.42,164.226 -23.37,64.024 -35.03,136.051 -35.03,216.082 0,69.149 11.66,135.27 35.03,198.336 23.37,63.028 56.52,118.907 99.42,167.567 42.89,48.656 94.58,87.39 155.12,116.207 60.46,28.81 127.87,43.21 202.14,43.21 36.49,0 72.81,-3.2 109.02,-9.6 36.13,-6.4 70.71,-17.15 103.72,-32.15 32.93,-15.05 63.66,-34.757 92.19,-59.085 28.46,-24.328 52.96,-54.422 73.45,-90.277 20.49,-35.852 36.64,-78.11 48.48,-126.766 11.85,-48.66 17.47,-104.684 16.83,-168.067"
         style="fill:#292929;fill-opacity:1;fill-rule:nonzero;stroke:none"
         id="path26"
         inkscape:connector-curvature="0" /><path
         d="m 6128.32,484.988 c -37.13,-3.847 -72.03,-10.597 -104.68,-20.238 -32.65,-9.641 -60.97,-22.34 -85.01,-38.059 -23.97,-15.722 -42.9,-34.5 -56.63,-56.339 -13.8,-21.883 -20.66,-46.922 -20.66,-75.161 0.64,-18.64 4.16,-34.402 10.56,-47.242 6.4,-12.84 14.55,-23.437 24.47,-31.801 9.93,-8.316 21.45,-14.437 34.58,-18.277 13.12,-3.883 26.74,-5.801 40.83,-5.801 30.73,0 59.22,6.442 85.47,19.282 26.25,12.839 49.62,30.519 70.11,53 l 0.96,220.636 z m -504.19,302.516 c 0,38.414 10.7,73.629 32.15,105.641 21.45,32.011 50.94,59.398 88.35,82.128 37.49,22.692 81.49,40.337 132.07,52.817 50.58,12.49 104.68,18.71 162.31,18.71 57.62,0 108.98,-7.36 154.15,-22.09 45.1,-14.72 83.2,-37.448 114.25,-68.183 31.05,-30.73 54.78,-69.785 71.07,-117.164 16.36,-47.379 24.51,-103.718 24.51,-169.023 0,-33.293 -0.18,-62.567 -0.47,-87.86 -0.35,-25.324 -0.49,-49.617 -0.49,-72.992 0,-23.398 -0.18,-47.867 -0.5,-73.476 -0.32,-25.614 -0.46,-55.063 -0.46,-88.364 0,-9.597 -0.18,-21.117 -0.47,-34.566 -0.35,-13.453 -0.67,-27.852 -0.99,-43.223 -0.32,-15.359 -0.93,-31.187 -1.92,-47.519 -0.93,-16.32 -2.07,-31.871 -3.35,-46.59 l 126.77,5.762 0,-149.8206 -371.66,0 c -2.56,18.5703 -4.31,34.1094 -5.3,46.5977 -0.93,12.4804 -1.74,27.0309 -2.38,43.6799 l -1.93,0 C 6095.03,77.1484 6048.29,45.6289 5999.63,27.3906 5950.97,9.14063 5900.71,0 5848.85,0 c -42.25,0 -80.03,6.58203 -113.32,19.6992 -33.29,13.0899 -61.32,31.5196 -84.02,55.211 -22.76,23.6914 -40.19,51.3988 -52.35,83.0898 -12.17,31.691 -18.25,66.41 -18.25,104.18 0,41.621 7.36,79.07 22.09,112.359 14.72,33.301 35.07,63.07 60.96,89.32 25.97,26.25 56.52,48.981 91.74,68.188 35.21,19.207 73.13,35.211 113.78,48.016 40.66,12.804 83.09,22.73 127.27,29.773 44.18,7.043 88.35,11.523 132.53,13.445 l 0,102.758 c 0,26.25 -2.24,50.438 -6.72,72.527 -4.48,22.086 -12.17,41.118 -23.05,57.122 -10.89,16.007 -25.29,28.492 -43.22,37.457 -17.92,8.96 -40.33,13.125 -67.22,12.484 -26.89,-1.281 -51.86,-6.723 -74.91,-16.328 -23.05,-9.602 -42.9,-23.047 -59.55,-40.332 10.25,-10.887 16.79,-23.371 19.71,-37.457 2.85,-14.086 4.3,-25.93 4.3,-35.532 0,-14.085 -2.56,-28.316 -7.68,-42.718 -5.12,-14.407 -13.12,-27.532 -24.01,-39.375 -10.88,-11.883 -24.65,-21.629 -41.29,-29.313 -16.65,-7.679 -36.5,-11.523 -59.55,-11.523 -19.2,0.64 -36.49,4.66 -51.86,12.023 -15.36,7.328 -28.17,16.93 -38.41,28.813 -10.25,11.843 -18.11,25.75 -23.51,41.758 -5.48,16.003 -8.18,33.293 -8.18,51.859"
         style="fill:#292929;fill-opacity:1;fill-rule:nonzero;stroke:none"
         id="path28"
         inkscape:connector-curvature="0" /><path
         d="m 6757.37,356.301 c 2.56,-30.09 12.16,-58.27 28.81,-84.52 16.65,-26.25 38.42,-48.972 65.31,-68.179 26.89,-19.211 58.4,-34.262 94.57,-45.141 36.18,-10.883 75.09,-16.332 116.71,-16.332 16,0 32.19,1.93 48.48,5.769 16.36,3.84 30.91,9.743 43.71,17.782 12.81,8 23.19,18.07 31.2,30.23 8,12.172 12.02,26.899 12.02,44.18 0,18.57 -4.98,34.43 -14.87,47.558 -9.96,13.09 -24.51,25.293 -43.71,36.493 -19.21,11.168 -43.08,22.23 -71.53,33.121 -28.53,10.879 -61.32,23.687 -98.46,38.41 -40.97,16.008 -82.27,32.508 -123.89,49.476 -41.61,16.934 -79.39,37.602 -113.32,61.922 -33.93,24.328 -61.64,54.285 -83.05,89.817 -21.49,35.535 -32.19,79.851 -32.19,132.996 0,37.773 7.22,75.547 21.59,113.32 14.44,37.777 36.67,71.707 66.76,101.801 30.09,30.09 68.51,54.598 115.24,73.486 46.74,18.85 102.44,28.31 167.11,28.31 17.92,0 37.27,-1.28 58.08,-3.84 20.81,-2.56 41.8,-6.58 62.92,-11.98 21.13,-5.45 41.62,-12.35 61.47,-20.67 19.85,-8.33 37.77,-18.247 53.78,-29.775 l 1.92,0 -2.88,55.705 149.82,0 0,-347.654 -126.77,0 c -5.76,33.934 -16.51,64.484 -32.16,91.73 -15.72,27.211 -35.39,50.262 -59.08,69.149 -23.69,18.851 -50.75,33.433 -81.13,43.68 -30.45,10.242 -63.24,15.367 -98.46,15.367 -16.64,0 -32.83,-1.922 -48.51,-5.766 -15.69,-3.84 -29.6,-9.922 -41.76,-18.246 -12.17,-8.324 -21.77,-19.066 -28.81,-32.152 -7.05,-13.125 -10.57,-29.313 -10.57,-48.52 0,-23.047 6.09,-42.113 18.25,-57.121 12.17,-15.047 29.13,-28.031 50.9,-38.914 21.77,-10.887 47.2,-20.988 76.37,-30.234 29.09,-9.286 60.64,-19.707 94.58,-31.231 49.94,-17.285 96.03,-36.172 138.29,-56.66 42.26,-20.488 78.75,-44.32 109.48,-71.527 30.73,-27.25 54.88,-58.27 72.53,-93.161 17.57,-34.929 26.39,-75.41 26.39,-121.5 0,-51.218 -10.1,-95.902 -30.23,-133.96 -20.21,-38.09 -46.92,-69.6411 -80.21,-94.6098 C 7288.77,49.9414 7250.68,31.2305 7207.78,18.7383 7164.89,6.26172 7120.39,0 7074.29,0 c -28.17,0 -56.34,1.92188 -84.51,5.76172 -28.17,3.83984 -55.06,9.13668 -80.67,15.86718 -25.61,6.7227 -49.16,14.8594 -70.61,24.4727 -21.45,9.5976 -39.83,20.1601 -55.2,31.6875 l -1.92,0 6.72,-59.5391 -149.82,0 -7.68,338.051 126.77,0"
         style="fill:#292929;fill-opacity:1;fill-rule:nonzero;stroke:none"
         id="path30"
         inkscape:connector-curvature="0" /></g></g></svg>